# xmcd
#
# Track frame offsets:
#	150
#	18699
#	31917
#	48972
#	65007
#	85032
#	98511
#	113625
#	131854
#	149599
#	162968
#	178782
#	198611
#	212367
#	230518
#	248024
#	269276
#	285740
#
# Disc length: 4130 seconds
#
# Revision: 0
# Processed by: cddbd v1.5.2PL0 Copyright (c) Steve Scherf et al.
# Submitted via: EasyCDDAExtractor 12.0.4.1
#
DISCID=02102012
DTITLE=Kiss - Larger Than Life [CD.2)
DYEAR=2010
DGENRE=Hard Rock
TTITLE0=Psycho Circus (Edit)
TTITLE1=Rock and Roll All Night
TTITLE2=I Love It Loud
TTITLE3=Love Gun
TTITLE4=Say Yeah
TTITLE5=I Want You
TTITLE6=Heaven's On Fire
TTITLE7=Who Wants To Be Lonely
TTITLE8=Lick It Up
TTITLE9=C'mon And Love Me
TTITLE10=Hotter Than Hell
TTITLE11=Charisma
TTITLE12=New York Groove
TTITLE13=Larger Than Life
TTITLE14=Forever
TTITLE15=We Are One
TTITLE16=Calling Dr. Love
TTITLE17=God Gave Rock and Roll To You Ii
EXTD=
EXTT0=
EXTT1=
EXTT2=
EXTT3=
EXTT4=
EXTT5=
EXTT6=
EXTT7=
EXTT8=
EXTT9=
EXTT10=
EXTT11=
EXTT12=
EXTT13=
EXTT14=
EXTT15=
EXTT16=
EXTT17=
PLAYORDER=
